# MagicaVoxel @ Ephtracy

# group
o 

# material
mtllib Missle.mtl
usemtl palette

# normals
vn -1 0 0
vn 1 0 0
vn 0 0 1
vn 0 0 -1
vn 0 -1 0
vn 0 1 0

# texcoords
vt 0.00195312 0.5
vt 0.841797 0.5
vt 0.958984 0.5
vt 0.966797 0.5
vt 0.990234 0.5

# verts
v -1.7 0.1 0
v -1.7 0.1 -1.1
v -1.7 0.6 0
v -1.7 0.6 -1.1
v -1.6 0 0
v -1.6 0 -1.1
v -1.6 0.1 0
v -1.6 0.1 -1.1
v -1.1 0 0.7
v -1.1 0 0
v -1.1 0 -1.1
v -1.1 0 -1.2
v -1.1 0.6 0.7
v -1.1 0.6 0
v -1.1 0.6 -0.2
v -1.1 0.6 -1.1
v -1.1 0.7 -0.2
v -1.1 0.7 -1.2
v -0.9 0 1
v -0.9 0 0.9
v -0.9 0 0.7
v -0.9 0.6 1
v -0.9 0.6 0.9
v -0.9 0.6 0.7
v -0.8 0 1.1
v -0.8 0 1
v -0.8 0.6 1.1
v -0.8 0.6 1
v -0.6 0 1.2
v -0.6 0 1.1
v -0.6 0.6 1.2
v -0.6 0.6 1.1
v -0.4 0 1.3
v -0.4 0 1.2
v -0.4 0.6 1.3
v -0.4 0.6 1.2
v 0.7 0.1 0.5
v 0.7 0.1 -0.1
v 0.7 0.2 0.6
v 0.7 0.2 0.5
v 0.7 0.3 0.7
v 0.7 0.3 0.6
v 0.7 0.4 0.7
v 0.7 0.5 0.7
v 0.7 0.5 -0.1
v 0.2 0 1.3
v 0.2 0 1.2
v 0.2 0.1 0.5
v 0.2 0.1 -0.1
v 0.2 0.2 0.6
v 0.2 0.2 0.5
v 0.2 0.3 0.7
v 0.2 0.3 0.6
v 0.2 0.4 0.8
v 0.2 0.4 0.7
v 0.2 0.5 0.8
v 0.2 0.5 -0.1
v 0.2 0.6 1.3
v 0.2 0.6 1.2
v 0.4 0 1.2
v 0.4 0 1.1
v 0.4 0.6 1.2
v 0.4 0.6 1.1
v 0.5 0 1.1
v 0.5 0 1
v 0.5 0.6 1.1
v 0.5 0.6 1
v 0.7 0 1
v 0.7 0 0.9
v 0.7 0 0.7
v 0.7 0.4 0.8
v 0.7 0.4 0.7
v 0.7 0.5 0.8
v 0.7 0.5 0.7
v 0.7 0.6 1
v 0.7 0.6 0.9
v 0.7 0.6 0.7
v 0.9 0 0.7
v 0.9 0 -0.1
v 0.9 0 -1.1
v 0.9 0 -1.2
v 0.9 0.5 -0.1
v 0.9 0.5 -1.1
v 0.9 0.6 0.7
v 0.9 0.6 -0.2
v 0.9 0.6 -1.1
v 0.9 0.7 -0.2
v 0.9 0.7 -1.2
v 1.7 0 -0.1
v 1.7 0 -1.1
v 1.7 0.5 -0.1
v 1.7 0.5 -1.1
v -0.4 0 1.3
v -0.4 0.6 1.3
v 0.2 0 1.3
v 0.2 0.6 1.3
v -0.6 0 1.2
v -0.6 0.6 1.2
v -0.4 0 1.2
v -0.4 0.6 1.2
v 0.2 0 1.2
v 0.2 0.6 1.2
v 0.4 0 1.2
v 0.4 0.6 1.2
v -0.8 0 1.1
v -0.8 0.6 1.1
v -0.6 0 1.1
v -0.6 0.6 1.1
v 0.4 0 1.1
v 0.4 0.6 1.1
v 0.5 0 1.1
v 0.5 0.6 1.1
v -0.9 0 1
v -0.9 0.6 1
v -0.8 0 1
v -0.8 0.6 1
v 0.5 0 1
v 0.5 0.6 1
v 0.7 0 1
v 0.7 0.6 1
v -1.1 0 0.7
v -1.1 0.6 0.7
v -0.9 0 0.7
v -0.9 0.6 0.7
v 0.7 0 0.7
v 0.7 0.4 0.7
v 0.7 0.5 0.7
v 0.7 0.6 0.7
v 0.9 0 0.7
v 0.9 0.6 0.7
v -1.7 0.1 0
v -1.7 0.6 0
v -1.6 0 0
v -1.6 0.1 0
v -1.1 0 0
v -1.1 0.6 0
v 0.2 0.1 -0.1
v 0.2 0.5 -0.1
v 0.7 0.1 -0.1
v 0.7 0.5 -0.1
v 0.9 0 -0.1
v 0.9 0.5 -0.1
v 1.7 0 -0.1
v 1.7 0.5 -0.1
v -1.1 0.6 -0.2
v -1.1 0.7 -0.2
v 0.9 0.6 -0.2
v 0.9 0.7 -0.2
v 0.2 0.4 0.8
v 0.2 0.5 0.8
v 0.7 0.4 0.8
v 0.7 0.5 0.8
v 0.2 0.3 0.7
v 0.2 0.4 0.7
v 0.7 0.3 0.7
v 0.7 0.4 0.7
v 0.2 0.2 0.6
v 0.2 0.3 0.6
v 0.7 0.2 0.6
v 0.7 0.3 0.6
v 0.2 0.1 0.5
v 0.2 0.2 0.5
v 0.7 0.1 0.5
v 0.7 0.2 0.5
v -1.7 0.1 -1.1
v -1.7 0.6 -1.1
v -1.6 0 -1.1
v -1.6 0.1 -1.1
v -1.1 0 -1.1
v -1.1 0.6 -1.1
v 0.9 0 -1.1
v 0.9 0.5 -1.1
v 1.7 0 -1.1
v 1.7 0.5 -1.1
v -1.1 0 -1.2
v -1.1 0.7 -1.2
v 0.9 0 -1.2
v 0.9 0.7 -1.2
v -0.4 0 1.3
v 0.2 0 1.3
v -0.6 0 1.2
v -0.4 0 1.2
v 0.2 0 1.2
v 0.4 0 1.2
v -0.8 0 1.1
v -0.6 0 1.1
v 0.4 0 1.1
v 0.5 0 1.1
v -0.9 0 1
v -0.8 0 1
v 0.5 0 1
v 0.7 0 1
v -0.9 0 0.9
v 0.7 0 0.9
v -1.1 0 0.7
v -0.9 0 0.7
v 0.7 0 0.7
v 0.9 0 0.7
v -1.6 0 0
v -1.1 0 0
v 0.9 0 -0.1
v 1.7 0 -0.1
v -1.1 0 -1
v -1 0 -1
v -1.6 0 -1.1
v -1.1 0 -1.1
v -1 0 -1.1
v 0.9 0 -1.1
v 1.7 0 -1.1
v -1.1 0 -1.2
v 0.9 0 -1.2
v -1.7 0.1 0
v -1.6 0.1 0
v -1.7 0.1 -1.1
v -1.6 0.1 -1.1
v 0.2 0.5 0.8
v 0.7 0.5 0.8
v 0.7 0.5 0.7
v 0.2 0.5 -0.1
v 0.7 0.5 -0.1
v 0.2 0.1 0.5
v 0.7 0.1 0.5
v 0.2 0.1 -0.1
v 0.7 0.1 -0.1
v 0.2 0.2 0.6
v 0.7 0.2 0.6
v 0.2 0.2 0.5
v 0.7 0.2 0.5
v 0.2 0.3 0.7
v 0.7 0.3 0.7
v 0.2 0.3 0.6
v 0.7 0.3 0.6
v 0.2 0.4 0.8
v 0.7 0.4 0.8
v 0.2 0.4 0.7
v 0.7 0.4 0.7
v 0.9 0.5 -0.1
v 1.7 0.5 -0.1
v 0.9 0.5 -1.1
v 1.7 0.5 -1.1
v -0.4 0.6 1.3
v 0.2 0.6 1.3
v -0.6 0.6 1.2
v -0.4 0.6 1.2
v 0.2 0.6 1.2
v 0.4 0.6 1.2
v -0.8 0.6 1.1
v -0.6 0.6 1.1
v 0.4 0.6 1.1
v 0.5 0.6 1.1
v -0.9 0.6 1
v -0.8 0.6 1
v 0.5 0.6 1
v 0.7 0.6 1
v -0.9 0.6 0.9
v 0.7 0.6 0.9
v -1.1 0.6 0.7
v -0.9 0.6 0.7
v 0.7 0.6 0.7
v 0.9 0.6 0.7
v -1.7 0.6 0
v -1.1 0.6 0
v -1.1 0.6 -0.2
v 0.9 0.6 -0.2
v -1.7 0.6 -1.1
v -1.1 0.6 -1.1
v -1.1 0.7 -0.2
v 0.9 0.7 -0.2
v -1.1 0.7 -1.2
v 0.9 0.7 -1.2

# faces
f 3/5/1 2/5/1 1/5/1
f 4/5/1 2/5/1 3/5/1
f 7/5/1 6/5/1 5/5/1
f 8/5/1 6/5/1 7/5/1
f 13/3/1 10/3/1 9/3/1
f 14/3/1 10/3/1 13/3/1
f 16/4/1 12/4/1 11/4/1
f 17/4/1 16/4/1 15/4/1
f 18/4/1 12/4/1 16/4/1
f 18/4/1 16/4/1 17/4/1
f 22/2/1 20/2/1 19/2/1
f 23/3/1 21/3/1 20/3/1
f 23/2/1 20/2/1 22/2/1
f 24/3/1 21/3/1 23/3/1
f 27/2/1 26/2/1 25/2/1
f 28/2/1 26/2/1 27/2/1
f 31/2/1 30/2/1 29/2/1
f 32/2/1 30/2/1 31/2/1
f 35/2/1 34/2/1 33/2/1
f 36/2/1 34/2/1 35/2/1
f 40/3/1 38/3/1 37/3/1
f 42/3/1 40/3/1 39/3/1
f 43/3/1 42/3/1 41/3/1
f 44/3/1 42/3/1 43/3/1
f 45/3/1 38/3/1 40/3/1
f 45/3/1 42/3/1 44/3/1
f 45/3/1 40/3/1 42/3/1
f 48/3/2 49/3/2 51/3/2
f 50/3/2 51/3/2 53/3/2
f 52/3/2 53/3/2 55/3/2
f 54/3/2 55/3/2 56/3/2
f 51/3/2 49/3/2 57/3/2
f 56/3/2 55/3/2 57/3/2
f 53/3/2 51/3/2 57/3/2
f 55/3/2 53/3/2 57/3/2
f 46/2/2 47/2/2 58/2/2
f 58/2/2 47/2/2 59/2/2
f 60/2/2 61/2/2 62/2/2
f 62/2/2 61/2/2 63/2/2
f 64/2/2 65/2/2 66/2/2
f 66/2/2 65/2/2 67/2/2
f 69/3/2 70/3/2 71/3/2
f 71/3/2 70/3/2 72/3/2
f 69/3/2 71/3/2 73/3/2
f 68/2/2 69/2/2 75/2/2
f 73/3/2 74/3/2 76/3/2
f 75/2/2 69/2/2 76/2/2
f 69/3/2 73/3/2 76/3/2
f 76/3/2 74/3/2 77/3/2
f 78/3/2 79/3/2 82/3/2
f 80/4/2 81/4/2 83/4/2
f 78/3/2 82/3/2 84/3/2
f 82/3/2 83/3/2 84/3/2
f 84/3/2 83/3/2 85/3/2
f 83/4/2 81/4/2 86/4/2
f 85/3/2 83/3/2 86/3/2
f 85/4/2 86/4/2 87/4/2
f 86/4/2 81/4/2 88/4/2
f 87/4/2 86/4/2 88/4/2
f 89/5/2 90/5/2 91/5/2
f 91/5/2 90/5/2 92/5/2
f 95/2/3 94/2/3 93/2/3
f 96/2/3 94/2/3 95/2/3
f 99/2/3 98/2/3 97/2/3
f 100/2/3 98/2/3 99/2/3
f 103/2/3 102/2/3 101/2/3
f 104/2/3 102/2/3 103/2/3
f 107/2/3 106/2/3 105/2/3
f 108/2/3 106/2/3 107/2/3
f 111/2/3 110/2/3 109/2/3
f 112/2/3 110/2/3 111/2/3
f 115/2/3 114/2/3 113/2/3
f 116/2/3 114/2/3 115/2/3
f 119/2/3 118/2/3 117/2/3
f 120/2/3 118/2/3 119/2/3
f 123/3/3 122/3/3 121/3/3
f 124/3/3 122/3/3 123/3/3
f 129/3/3 126/3/3 125/3/3
f 129/3/3 128/3/3 127/3/3
f 129/3/3 127/3/3 126/3/3
f 130/3/3 128/3/3 129/3/3
f 134/5/3 132/5/3 131/5/3
f 135/5/3 134/5/3 133/5/3
f 136/5/3 132/5/3 134/5/3
f 136/5/3 134/5/3 135/5/3
f 139/3/3 138/3/3 137/3/3
f 140/3/3 138/3/3 139/3/3
f 143/5/3 142/5/3 141/5/3
f 144/5/3 142/5/3 143/5/3
f 147/4/3 146/4/3 145/4/3
f 148/4/3 146/4/3 147/4/3
f 149/3/4 150/3/4 151/3/4
f 151/3/4 150/3/4 152/3/4
f 153/3/4 154/3/4 155/3/4
f 155/3/4 154/3/4 156/3/4
f 157/3/4 158/3/4 159/3/4
f 159/3/4 158/3/4 160/3/4
f 161/3/4 162/3/4 163/3/4
f 163/3/4 162/3/4 164/3/4
f 165/5/4 166/5/4 168/5/4
f 167/5/4 168/5/4 169/5/4
f 168/5/4 166/5/4 170/5/4
f 169/5/4 168/5/4 170/5/4
f 171/5/4 172/5/4 173/5/4
f 173/5/4 172/5/4 174/5/4
f 175/4/4 176/4/4 177/4/4
f 177/4/4 176/4/4 178/4/4
f 182/2/5 180/2/5 179/2/5
f 183/2/5 180/2/5 182/2/5
f 186/2/5 182/2/5 181/2/5
f 186/2/5 184/2/5 183/2/5
f 186/2/5 183/2/5 182/2/5
f 187/2/5 184/2/5 186/2/5
f 190/2/5 186/2/5 185/2/5
f 190/2/5 188/2/5 187/2/5
f 190/2/5 187/2/5 186/2/5
f 191/2/5 188/2/5 190/2/5
f 193/2/5 190/2/5 189/2/5
f 193/2/5 192/2/5 191/2/5
f 193/2/5 191/2/5 190/2/5
f 194/2/5 192/2/5 193/2/5
f 196/3/5 194/3/5 193/3/5
f 197/3/5 194/3/5 196/3/5
f 200/3/5 197/3/5 196/3/5
f 200/3/5 198/3/5 197/3/5
f 200/3/5 196/3/5 195/3/5
f 201/3/5 198/3/5 200/3/5
f 203/5/5 200/5/5 199/5/5
f 203/3/5 201/3/5 200/3/5
f 204/3/5 201/3/5 203/3/5
f 205/5/5 203/5/5 199/5/5
f 206/1/5 204/1/5 203/1/5
f 206/5/5 203/5/5 205/5/5
f 207/3/5 201/3/5 204/3/5
f 207/1/5 204/1/5 206/1/5
f 208/5/5 202/5/5 201/5/5
f 208/3/5 201/3/5 207/3/5
f 209/5/5 202/5/5 208/5/5
f 210/4/5 207/4/5 206/4/5
f 210/4/5 208/4/5 207/4/5
f 211/4/5 208/4/5 210/4/5
f 214/5/5 213/5/5 212/5/5
f 215/5/5 213/5/5 214/5/5
f 218/3/5 217/3/5 216/3/5
f 219/3/5 218/3/5 216/3/5
f 220/3/5 218/3/5 219/3/5
f 221/3/6 222/3/6 223/3/6
f 223/3/6 222/3/6 224/3/6
f 225/3/6 226/3/6 227/3/6
f 227/3/6 226/3/6 228/3/6
f 229/3/6 230/3/6 231/3/6
f 231/3/6 230/3/6 232/3/6
f 233/3/6 234/3/6 235/3/6
f 235/3/6 234/3/6 236/3/6
f 237/5/6 238/5/6 239/5/6
f 239/5/6 238/5/6 240/5/6
f 241/2/6 242/2/6 244/2/6
f 244/2/6 242/2/6 245/2/6
f 243/2/6 244/2/6 248/2/6
f 245/2/6 246/2/6 248/2/6
f 244/2/6 245/2/6 248/2/6
f 248/2/6 246/2/6 249/2/6
f 247/2/6 248/2/6 252/2/6
f 249/2/6 250/2/6 252/2/6
f 248/2/6 249/2/6 252/2/6
f 252/2/6 250/2/6 253/2/6
f 251/2/6 252/2/6 255/2/6
f 253/2/6 254/2/6 255/2/6
f 252/2/6 253/2/6 255/2/6
f 255/2/6 254/2/6 256/2/6
f 255/3/6 256/3/6 258/3/6
f 258/3/6 256/3/6 259/3/6
f 258/3/6 259/3/6 262/3/6
f 259/3/6 260/3/6 262/3/6
f 257/3/6 258/3/6 262/3/6
f 262/3/6 260/3/6 263/3/6
f 261/5/6 262/5/6 263/5/6
f 263/3/6 260/3/6 264/3/6
f 261/5/6 263/5/6 265/5/6
f 265/5/6 263/5/6 266/5/6
f 267/4/6 268/4/6 269/4/6
f 269/4/6 268/4/6 270/4/6
