# MagicaVoxel @ Ephtracy

# group
o 

# material
mtllib glider.mtl
usemtl palette

# normals
vn -1 0 0
vn 1 0 0
vn 0 0 1
vn 0 0 -1
vn 0 -1 0
vn 0 1 0

# texcoords
vt 0.00195312 0.5
vt 0.275391 0.5
vt 0.279297 0.5
vt 0.306641 0.5

# verts
v -1 0 -0.7
v -1 0 -1
v -1 0.1 -0.7
v -1 0.1 -1
v -0.9 0 -0.5
v -0.9 0 -0.7
v -0.9 0.1 -0.5
v -0.9 0.1 -0.7
v -0.8 0 -0.4
v -0.8 0 -0.5
v -0.8 0.1 -0.4
v -0.8 0.1 -0.5
v -0.7 0 -0.3
v -0.7 0 -0.4
v -0.7 0.1 -0.3
v -0.7 0.1 -0.4
v -0.6 0 -0.2
v -0.6 0 -0.3
v -0.6 0.1 -0.2
v -0.6 0.1 -0.3
v -0.5 0 -0.1
v -0.5 0 -0.2
v -0.5 0.1 -0.1
v -0.5 0.1 -0.2
v -0.4 0 0
v -0.4 0 -0.1
v -0.4 0.1 0
v -0.4 0.1 -0.1
v -0.3 0 0.1
v -0.3 0 0
v -0.3 0.1 0.1
v -0.3 0.1 0
v -0.2 0 0.2
v -0.2 0 0.1
v -0.2 0.1 0.2
v -0.2 0.1 0.1
v -0.1 0 0.4
v -0.1 0 0.3
v -0.1 0 0.2
v -0.1 0.1 0.4
v -0.1 0.1 0.3
v -0.1 0.1 0.2
v 0.1 0 0.4
v 0.1 0 0.3
v 0.1 0 0.2
v 0.1 0.1 0.4
v 0.1 0.1 0.3
v 0.1 0.1 0.2
v 0.2 0 0.2
v 0.2 0 0.1
v 0.2 0.1 0.2
v 0.2 0.1 0.1
v 0.3 0 0.1
v 0.3 0 0
v 0.3 0.1 0.1
v 0.3 0.1 0
v 0.4 0 0
v 0.4 0 -0.1
v 0.4 0.1 0
v 0.4 0.1 -0.1
v 0.5 0 -0.1
v 0.5 0 -0.2
v 0.5 0.1 -0.1
v 0.5 0.1 -0.2
v 0.6 0 -0.2
v 0.6 0 -0.3
v 0.6 0.1 -0.2
v 0.6 0.1 -0.3
v 0.7 0 -0.3
v 0.7 0 -0.4
v 0.7 0.1 -0.3
v 0.7 0.1 -0.4
v 0.8 0 -0.4
v 0.8 0 -0.5
v 0.8 0.1 -0.4
v 0.8 0.1 -0.5
v 0.9 0 -0.5
v 0.9 0 -0.7
v 0.9 0.1 -0.5
v 0.9 0.1 -0.7
v 1 0 -0.7
v 1 0 -1
v 1 0.1 -0.7
v 1 0.1 -1
v -0.1 0 0.4
v -0.1 0.1 0.4
v 0.1 0 0.4
v 0.1 0.1 0.4
v -0.2 0 0.2
v -0.2 0.1 0.2
v -0.1 0 0.2
v -0.1 0.1 0.2
v 0.1 0 0.2
v 0.1 0.1 0.2
v 0.2 0 0.2
v 0.2 0.1 0.2
v -0.3 0 0.1
v -0.3 0.1 0.1
v -0.2 0 0.1
v -0.2 0.1 0.1
v 0.2 0 0.1
v 0.2 0.1 0.1
v 0.3 0 0.1
v 0.3 0.1 0.1
v -0.4 0 0
v -0.4 0.1 0
v -0.3 0 0
v -0.3 0.1 0
v 0.3 0 0
v 0.3 0.1 0
v 0.4 0 0
v 0.4 0.1 0
v -0.5 0 -0.1
v -0.5 0.1 -0.1
v -0.4 0 -0.1
v -0.4 0.1 -0.1
v 0.4 0 -0.1
v 0.4 0.1 -0.1
v 0.5 0 -0.1
v 0.5 0.1 -0.1
v -0.6 0 -0.2
v -0.6 0.1 -0.2
v -0.5 0 -0.2
v -0.5 0.1 -0.2
v 0.5 0 -0.2
v 0.5 0.1 -0.2
v 0.6 0 -0.2
v 0.6 0.1 -0.2
v -0.7 0 -0.3
v -0.7 0.1 -0.3
v -0.6 0 -0.3
v -0.6 0.1 -0.3
v 0.6 0 -0.3
v 0.6 0.1 -0.3
v 0.7 0 -0.3
v 0.7 0.1 -0.3
v -0.8 0 -0.4
v -0.8 0.1 -0.4
v -0.7 0 -0.4
v -0.7 0.1 -0.4
v 0.7 0 -0.4
v 0.7 0.1 -0.4
v 0.8 0 -0.4
v 0.8 0.1 -0.4
v -0.9 0 -0.5
v -0.9 0.1 -0.5
v -0.8 0 -0.5
v -0.8 0.1 -0.5
v 0.8 0 -0.5
v 0.8 0.1 -0.5
v 0.9 0 -0.5
v 0.9 0.1 -0.5
v -1 0 -0.7
v -1 0.1 -0.7
v -0.9 0 -0.7
v -0.9 0.1 -0.7
v 0.9 0 -0.7
v 0.9 0.1 -0.7
v 1 0 -0.7
v 1 0.1 -0.7
v -1 0 -1
v -1 0.1 -1
v 1 0 -1
v 1 0.1 -1
v -0.1 0 0.4
v 0.1 0 0.4
v -0.1 0 0.3
v 0.1 0 0.3
v -0.2 0 0.2
v -0.1 0 0.2
v 0.1 0 0.2
v 0.2 0 0.2
v -0.3 0 0.1
v -0.2 0 0.1
v 0.2 0 0.1
v 0.3 0 0.1
v -0.4 0 0
v -0.3 0 0
v -0.2 0 0
v -0.1 0 0
v 0.1 0 0
v 0.2 0 0
v 0.3 0 0
v 0.4 0 0
v -0.5 0 -0.1
v -0.4 0 -0.1
v -0.3 0 -0.1
v -0.2 0 -0.1
v 0.2 0 -0.1
v 0.3 0 -0.1
v 0.4 0 -0.1
v 0.5 0 -0.1
v -0.6 0 -0.2
v -0.5 0 -0.2
v -0.4 0 -0.2
v -0.3 0 -0.2
v 0.3 0 -0.2
v 0.4 0 -0.2
v 0.5 0 -0.2
v 0.6 0 -0.2
v -0.7 0 -0.3
v -0.6 0 -0.3
v -0.5 0 -0.3
v -0.4 0 -0.3
v 0.4 0 -0.3
v 0.5 0 -0.3
v 0.6 0 -0.3
v 0.7 0 -0.3
v -0.8 0 -0.4
v -0.7 0 -0.4
v -0.6 0 -0.4
v -0.5 0 -0.4
v 0.5 0 -0.4
v 0.6 0 -0.4
v 0.7 0 -0.4
v 0.8 0 -0.4
v -0.9 0 -0.5
v -0.8 0 -0.5
v -0.7 0 -0.5
v -0.6 0 -0.5
v 0.6 0 -0.5
v 0.7 0 -0.5
v 0.8 0 -0.5
v 0.9 0 -0.5
v -0.8 0 -0.6
v -0.7 0 -0.6
v 0.7 0 -0.6
v 0.8 0 -0.6
v -1 0 -0.7
v -0.9 0 -0.7
v -0.8 0 -0.7
v 0.8 0 -0.7
v 0.9 0 -0.7
v 1 0 -0.7
v -0.9 0 -0.9
v -0.6 0 -0.9
v -0.4 0 -0.9
v -0.1 0 -0.9
v 0.1 0 -0.9
v 0.4 0 -0.9
v 0.6 0 -0.9
v 0.9 0 -0.9
v -1 0 -1
v 1 0 -1
v -0.1 0.1 0.4
v 0.1 0.1 0.4
v -0.1 0.1 0.3
v 0.1 0.1 0.3
v -0.2 0.1 0.2
v -0.1 0.1 0.2
v 0.1 0.1 0.2
v 0.2 0.1 0.2
v -0.3 0.1 0.1
v -0.2 0.1 0.1
v 0.2 0.1 0.1
v 0.3 0.1 0.1
v -0.4 0.1 0
v -0.3 0.1 0
v -0.2 0.1 0
v -0.1 0.1 0
v 0.1 0.1 0
v 0.2 0.1 0
v 0.3 0.1 0
v 0.4 0.1 0
v -0.5 0.1 -0.1
v -0.4 0.1 -0.1
v -0.3 0.1 -0.1
v -0.2 0.1 -0.1
v 0.2 0.1 -0.1
v 0.3 0.1 -0.1
v 0.4 0.1 -0.1
v 0.5 0.1 -0.1
v -0.6 0.1 -0.2
v -0.5 0.1 -0.2
v -0.4 0.1 -0.2
v -0.3 0.1 -0.2
v 0.3 0.1 -0.2
v 0.4 0.1 -0.2
v 0.5 0.1 -0.2
v 0.6 0.1 -0.2
v -0.7 0.1 -0.3
v -0.6 0.1 -0.3
v -0.5 0.1 -0.3
v -0.4 0.1 -0.3
v 0.4 0.1 -0.3
v 0.5 0.1 -0.3
v 0.6 0.1 -0.3
v 0.7 0.1 -0.3
v -0.8 0.1 -0.4
v -0.7 0.1 -0.4
v -0.6 0.1 -0.4
v -0.5 0.1 -0.4
v 0.5 0.1 -0.4
v 0.6 0.1 -0.4
v 0.7 0.1 -0.4
v 0.8 0.1 -0.4
v -0.9 0.1 -0.5
v -0.8 0.1 -0.5
v -0.7 0.1 -0.5
v -0.6 0.1 -0.5
v 0.6 0.1 -0.5
v 0.7 0.1 -0.5
v 0.8 0.1 -0.5
v 0.9 0.1 -0.5
v -0.8 0.1 -0.6
v -0.7 0.1 -0.6
v 0.7 0.1 -0.6
v 0.8 0.1 -0.6
v -1 0.1 -0.7
v -0.9 0.1 -0.7
v -0.8 0.1 -0.7
v 0.8 0.1 -0.7
v 0.9 0.1 -0.7
v 1 0.1 -0.7
v -0.9 0.1 -0.9
v -0.6 0.1 -0.9
v -0.4 0.1 -0.9
v -0.1 0.1 -0.9
v 0.1 0.1 -0.9
v 0.4 0.1 -0.9
v 0.6 0.1 -0.9
v 0.9 0.1 -0.9
v -1 0.1 -1
v 1 0.1 -1

# faces
f 3/4/1 2/4/1 1/4/1
f 4/4/1 2/4/1 3/4/1
f 7/4/1 6/4/1 5/4/1
f 8/4/1 6/4/1 7/4/1
f 11/4/1 10/4/1 9/4/1
f 12/4/1 10/4/1 11/4/1
f 15/4/1 14/4/1 13/4/1
f 16/4/1 14/4/1 15/4/1
f 19/4/1 18/4/1 17/4/1
f 20/4/1 18/4/1 19/4/1
f 23/4/1 22/4/1 21/4/1
f 24/4/1 22/4/1 23/4/1
f 27/4/1 26/4/1 25/4/1
f 28/4/1 26/4/1 27/4/1
f 31/4/1 30/4/1 29/4/1
f 32/4/1 30/4/1 31/4/1
f 35/4/1 34/4/1 33/4/1
f 36/4/1 34/4/1 35/4/1
f 40/2/1 38/2/1 37/2/1
f 41/3/1 39/3/1 38/3/1
f 41/2/1 38/2/1 40/2/1
f 42/3/1 39/3/1 41/3/1
f 43/2/2 44/2/2 46/2/2
f 44/3/2 45/3/2 47/3/2
f 46/2/2 44/2/2 47/2/2
f 47/3/2 45/3/2 48/3/2
f 49/4/2 50/4/2 51/4/2
f 51/4/2 50/4/2 52/4/2
f 53/4/2 54/4/2 55/4/2
f 55/4/2 54/4/2 56/4/2
f 57/4/2 58/4/2 59/4/2
f 59/4/2 58/4/2 60/4/2
f 61/4/2 62/4/2 63/4/2
f 63/4/2 62/4/2 64/4/2
f 65/4/2 66/4/2 67/4/2
f 67/4/2 66/4/2 68/4/2
f 69/4/2 70/4/2 71/4/2
f 71/4/2 70/4/2 72/4/2
f 73/4/2 74/4/2 75/4/2
f 75/4/2 74/4/2 76/4/2
f 77/4/2 78/4/2 79/4/2
f 79/4/2 78/4/2 80/4/2
f 81/4/2 82/4/2 83/4/2
f 83/4/2 82/4/2 84/4/2
f 87/2/3 86/2/3 85/2/3
f 88/2/3 86/2/3 87/2/3
f 91/4/3 90/4/3 89/4/3
f 92/4/3 90/4/3 91/4/3
f 95/4/3 94/4/3 93/4/3
f 96/4/3 94/4/3 95/4/3
f 99/4/3 98/4/3 97/4/3
f 100/4/3 98/4/3 99/4/3
f 103/4/3 102/4/3 101/4/3
f 104/4/3 102/4/3 103/4/3
f 107/4/3 106/4/3 105/4/3
f 108/4/3 106/4/3 107/4/3
f 111/4/3 110/4/3 109/4/3
f 112/4/3 110/4/3 111/4/3
f 115/4/3 114/4/3 113/4/3
f 116/4/3 114/4/3 115/4/3
f 119/4/3 118/4/3 117/4/3
f 120/4/3 118/4/3 119/4/3
f 123/4/3 122/4/3 121/4/3
f 124/4/3 122/4/3 123/4/3
f 127/4/3 126/4/3 125/4/3
f 128/4/3 126/4/3 127/4/3
f 131/4/3 130/4/3 129/4/3
f 132/4/3 130/4/3 131/4/3
f 135/4/3 134/4/3 133/4/3
f 136/4/3 134/4/3 135/4/3
f 139/4/3 138/4/3 137/4/3
f 140/4/3 138/4/3 139/4/3
f 143/4/3 142/4/3 141/4/3
f 144/4/3 142/4/3 143/4/3
f 147/4/3 146/4/3 145/4/3
f 148/4/3 146/4/3 147/4/3
f 151/4/3 150/4/3 149/4/3
f 152/4/3 150/4/3 151/4/3
f 155/4/3 154/4/3 153/4/3
f 156/4/3 154/4/3 155/4/3
f 159/4/3 158/4/3 157/4/3
f 160/4/3 158/4/3 159/4/3
f 161/4/4 162/4/4 163/4/4
f 163/4/4 162/4/4 164/4/4
f 167/2/5 166/2/5 165/2/5
f 168/2/5 166/2/5 167/2/5
f 170/3/5 168/3/5 167/3/5
f 171/3/5 168/3/5 170/3/5
f 174/4/5 170/4/5 169/4/5
f 175/4/5 172/4/5 171/4/5
f 178/4/5 174/4/5 173/4/5
f 179/4/5 170/4/5 174/4/5
f 179/4/5 174/4/5 178/4/5
f 180/3/5 171/3/5 170/3/5
f 180/4/5 170/4/5 179/4/5
f 181/4/5 176/4/5 175/4/5
f 181/3/5 171/3/5 180/3/5
f 181/4/5 175/4/5 171/4/5
f 182/4/5 176/4/5 181/4/5
f 183/4/5 176/4/5 182/4/5
f 186/4/5 179/4/5 178/4/5
f 186/4/5 178/4/5 177/4/5
f 187/4/5 179/4/5 186/4/5
f 188/1/5 180/1/5 179/1/5
f 188/4/5 179/4/5 187/4/5
f 189/4/5 184/4/5 183/4/5
f 189/4/5 183/4/5 182/4/5
f 189/1/5 182/1/5 181/1/5
f 190/4/5 184/4/5 189/4/5
f 191/4/5 184/4/5 190/4/5
f 194/4/5 187/4/5 186/4/5
f 194/4/5 186/4/5 185/4/5
f 195/4/5 187/4/5 194/4/5
f 196/1/5 188/1/5 187/1/5
f 196/4/5 187/4/5 195/4/5
f 197/4/5 192/4/5 191/4/5
f 197/4/5 191/4/5 190/4/5
f 197/1/5 190/1/5 189/1/5
f 198/4/5 192/4/5 197/4/5
f 199/4/5 192/4/5 198/4/5
f 202/4/5 195/4/5 194/4/5
f 202/4/5 194/4/5 193/4/5
f 203/4/5 195/4/5 202/4/5
f 204/1/5 196/1/5 195/1/5
f 204/4/5 195/4/5 203/4/5
f 205/4/5 200/4/5 199/4/5
f 205/4/5 199/4/5 198/4/5
f 205/1/5 198/1/5 197/1/5
f 206/4/5 200/4/5 205/4/5
f 207/4/5 200/4/5 206/4/5
f 210/4/5 203/4/5 202/4/5
f 210/4/5 202/4/5 201/4/5
f 211/4/5 203/4/5 210/4/5
f 212/3/5 204/3/5 203/3/5
f 212/4/5 203/4/5 211/4/5
f 213/4/5 208/4/5 207/4/5
f 213/4/5 207/4/5 206/4/5
f 213/3/5 206/3/5 205/3/5
f 214/4/5 208/4/5 213/4/5
f 215/4/5 208/4/5 214/4/5
f 218/4/5 211/4/5 210/4/5
f 218/4/5 210/4/5 209/4/5
f 219/4/5 211/4/5 218/4/5
f 220/3/5 212/3/5 211/3/5
f 220/4/5 211/4/5 219/4/5
f 221/4/5 216/4/5 215/4/5
f 221/4/5 215/4/5 214/4/5
f 221/3/5 214/3/5 213/3/5
f 222/4/5 216/4/5 221/4/5
f 223/4/5 216/4/5 222/4/5
f 225/4/5 219/4/5 218/4/5
f 225/4/5 218/4/5 217/4/5
f 226/1/5 220/1/5 219/1/5
f 226/4/5 219/4/5 225/4/5
f 227/4/5 224/4/5 223/4/5
f 227/4/5 223/4/5 222/4/5
f 227/1/5 222/1/5 221/1/5
f 228/4/5 224/4/5 227/4/5
f 230/4/5 225/4/5 217/4/5
f 231/1/5 226/1/5 225/1/5
f 231/4/5 225/4/5 230/4/5
f 232/4/5 224/4/5 228/4/5
f 232/1/5 228/1/5 227/1/5
f 233/4/5 224/4/5 232/4/5
f 235/4/5 230/4/5 229/4/5
f 235/1/5 231/1/5 230/1/5
f 236/3/5 212/3/5 220/3/5
f 236/1/5 231/1/5 235/1/5
f 236/1/5 220/1/5 226/1/5
f 236/1/5 226/1/5 231/1/5
f 237/1/5 196/1/5 204/1/5
f 237/3/5 212/3/5 236/3/5
f 237/3/5 204/3/5 212/3/5
f 238/1/5 180/1/5 188/1/5
f 238/1/5 196/1/5 237/1/5
f 238/1/5 188/1/5 196/1/5
f 238/3/5 181/3/5 180/3/5
f 239/1/5 189/1/5 181/1/5
f 239/3/5 181/3/5 238/3/5
f 239/1/5 197/1/5 189/1/5
f 239/1/5 205/1/5 197/1/5
f 240/3/5 221/3/5 213/3/5
f 240/1/5 205/1/5 239/1/5
f 240/3/5 213/3/5 205/3/5
f 241/1/5 227/1/5 221/1/5
f 241/3/5 221/3/5 240/3/5
f 241/1/5 233/1/5 232/1/5
f 241/1/5 232/1/5 227/1/5
f 242/4/5 234/4/5 233/4/5
f 242/1/5 233/1/5 241/1/5
f 243/4/5 237/4/5 236/4/5
f 243/4/5 240/4/5 239/4/5
f 243/4/5 242/4/5 241/4/5
f 243/4/5 241/4/5 240/4/5
f 243/4/5 236/4/5 235/4/5
f 243/4/5 239/4/5 238/4/5
f 243/4/5 238/4/5 237/4/5
f 243/4/5 235/4/5 229/4/5
f 244/4/5 234/4/5 242/4/5
f 244/4/5 242/4/5 243/4/5
f 245/2/6 246/2/6 247/2/6
f 247/2/6 246/2/6 248/2/6
f 247/3/6 248/3/6 250/3/6
f 250/3/6 248/3/6 251/3/6
f 249/4/6 250/4/6 254/4/6
f 251/4/6 252/4/6 255/4/6
f 253/4/6 254/4/6 258/4/6
f 254/4/6 250/4/6 259/4/6
f 258/4/6 254/4/6 259/4/6
f 250/3/6 251/3/6 260/3/6
f 259/4/6 250/4/6 260/4/6
f 255/4/6 256/4/6 261/4/6
f 260/3/6 251/3/6 261/3/6
f 251/4/6 255/4/6 261/4/6
f 261/4/6 256/4/6 262/4/6
f 262/4/6 256/4/6 263/4/6
f 258/4/6 259/4/6 266/4/6
f 257/4/6 258/4/6 266/4/6
f 266/4/6 259/4/6 267/4/6
f 259/1/6 260/1/6 268/1/6
f 267/4/6 259/4/6 268/4/6
f 263/4/6 264/4/6 269/4/6
f 262/4/6 263/4/6 269/4/6
f 261/1/6 262/1/6 269/1/6
f 269/4/6 264/4/6 270/4/6
f 270/4/6 264/4/6 271/4/6
f 266/4/6 267/4/6 274/4/6
f 265/4/6 266/4/6 274/4/6
f 274/4/6 267/4/6 275/4/6
f 267/1/6 268/1/6 276/1/6
f 275/4/6 267/4/6 276/4/6
f 271/4/6 272/4/6 277/4/6
f 270/4/6 271/4/6 277/4/6
f 269/1/6 270/1/6 277/1/6
f 277/4/6 272/4/6 278/4/6
f 278/4/6 272/4/6 279/4/6
f 274/4/6 275/4/6 282/4/6
f 273/4/6 274/4/6 282/4/6
f 282/4/6 275/4/6 283/4/6
f 275/1/6 276/1/6 284/1/6
f 283/4/6 275/4/6 284/4/6
f 279/4/6 280/4/6 285/4/6
f 278/4/6 279/4/6 285/4/6
f 277/1/6 278/1/6 285/1/6
f 285/4/6 280/4/6 286/4/6
f 286/4/6 280/4/6 287/4/6
f 282/4/6 283/4/6 290/4/6
f 281/4/6 282/4/6 290/4/6
f 290/4/6 283/4/6 291/4/6
f 283/3/6 284/3/6 292/3/6
f 291/4/6 283/4/6 292/4/6
f 287/4/6 288/4/6 293/4/6
f 286/4/6 287/4/6 293/4/6
f 285/3/6 286/3/6 293/3/6
f 293/4/6 288/4/6 294/4/6
f 294/4/6 288/4/6 295/4/6
f 290/4/6 291/4/6 298/4/6
f 289/4/6 290/4/6 298/4/6
f 298/4/6 291/4/6 299/4/6
f 291/3/6 292/3/6 300/3/6
f 299/4/6 291/4/6 300/4/6
f 295/4/6 296/4/6 301/4/6
f 294/4/6 295/4/6 301/4/6
f 293/3/6 294/3/6 301/3/6
f 301/4/6 296/4/6 302/4/6
f 302/4/6 296/4/6 303/4/6
f 298/4/6 299/4/6 305/4/6
f 297/4/6 298/4/6 305/4/6
f 299/1/6 300/1/6 306/1/6
f 305/4/6 299/4/6 306/4/6
f 303/4/6 304/4/6 307/4/6
f 302/4/6 303/4/6 307/4/6
f 301/1/6 302/1/6 307/1/6
f 307/4/6 304/4/6 308/4/6
f 297/4/6 305/4/6 310/4/6
f 305/1/6 306/1/6 311/1/6
f 310/4/6 305/4/6 311/4/6
f 308/4/6 304/4/6 312/4/6
f 307/1/6 308/1/6 312/1/6
f 312/4/6 304/4/6 313/4/6
f 309/4/6 310/4/6 315/4/6
f 310/1/6 311/1/6 315/1/6
f 300/3/6 292/3/6 316/3/6
f 315/1/6 311/1/6 316/1/6
f 306/1/6 300/1/6 316/1/6
f 311/1/6 306/1/6 316/1/6
f 284/1/6 276/1/6 317/1/6
f 316/3/6 292/3/6 317/3/6
f 292/3/6 284/3/6 317/3/6
f 268/1/6 260/1/6 318/1/6
f 317/1/6 276/1/6 318/1/6
f 276/1/6 268/1/6 318/1/6
f 260/3/6 261/3/6 318/3/6
f 261/1/6 269/1/6 319/1/6
f 318/3/6 261/3/6 319/3/6
f 269/1/6 277/1/6 319/1/6
f 277/1/6 285/1/6 319/1/6
f 293/3/6 301/3/6 320/3/6
f 319/1/6 285/1/6 320/1/6
f 285/3/6 293/3/6 320/3/6
f 301/1/6 307/1/6 321/1/6
f 320/3/6 301/3/6 321/3/6
f 312/1/6 313/1/6 321/1/6
f 307/1/6 312/1/6 321/1/6
f 313/4/6 314/4/6 322/4/6
f 321/1/6 313/1/6 322/1/6
f 316/4/6 317/4/6 323/4/6
f 319/4/6 320/4/6 323/4/6
f 321/4/6 322/4/6 323/4/6
f 320/4/6 321/4/6 323/4/6
f 315/4/6 316/4/6 323/4/6
f 318/4/6 319/4/6 323/4/6
f 317/4/6 318/4/6 323/4/6
f 309/4/6 315/4/6 323/4/6
f 322/4/6 314/4/6 324/4/6
f 323/4/6 322/4/6 324/4/6
